<svg width="28" height="4" viewBox="0 0 28 4" fill="none" xmlns="http://www.w3.org/2000/svg">
<g id="Frame 34">
<path id="Vector" d="M0.587987 1.9209C1.0235 1.51025 1.55356 1.21667 2.12981 1.06695C2.70607 0.917223 3.31014 0.916133 3.88692 1.06376C4.7424 1.25482 5.57679 1.5324 6.37756 1.89233C6.87135 2.10776 7.37652 2.29536 7.89075 2.45424C8.17029 2.54965 8.46102 2.60728 8.75543 2.62566C9.6953 2.93042 10.0994 2.39709 10.1088 1.03519C10.0426 1.03231 9.97906 1.008 9.92747 0.965845C9.87587 0.923688 9.83896 0.865899 9.82214 0.800935C9.80533 0.735971 9.80949 0.66726 9.83402 0.604868C9.85855 0.542477 9.90217 0.489687 9.95847 0.454243C11.8382 -0.555276 12.6653 2.10185 11.3213 3.31137C10.873 3.62989 10.3583 3.8394 9.8171 3.92364C9.27593 4.00787 8.72288 3.96456 8.20091 3.79708C5.63507 3.19708 3.63315 1.05424 0.832347 2.27328C0.634975 2.359 0.400013 2.12089 0.587987 1.94947L0.587987 1.9209Z" fill="#F8CA95"/>
<path id="Vector_2" d="M27.8443 1.9209C27.4088 1.51025 26.8787 1.21667 26.3025 1.06695C25.7262 0.917222 25.1222 0.916133 24.5454 1.06376C23.6926 1.25342 22.8611 1.53105 22.0641 1.89233C21.5672 2.10778 21.0589 2.29537 20.5415 2.45424C20.262 2.54965 19.9713 2.60728 19.6769 2.62566C18.784 2.93042 18.3329 2.39709 18.3235 1.03519C18.3897 1.03231 18.4532 1.008 18.5048 0.965846C18.5564 0.923689 18.5934 0.8659 18.6102 0.800935C18.627 0.735971 18.6228 0.66726 18.5983 0.604868C18.5737 0.542477 18.5301 0.489687 18.4738 0.454243C16.6411 -0.555275 15.767 2.10185 17.111 3.31137C17.5593 3.62989 18.074 3.8394 18.6152 3.92364C19.1564 4.00788 19.7094 3.96456 20.2314 3.79708C22.7972 3.19708 24.7991 1.05424 27.5999 2.27328C27.7973 2.359 28.0323 2.12089 27.8443 1.94947L27.8443 1.9209Z" fill="#F8CA95"/>
<path id="Vector_3" d="M12.3836 0.863742C12.5692 1.10678 12.8029 1.3079 13.0697 1.45423C13.2389 1.57803 13.4174 1.71136 13.596 1.81612C13.24 2.11374 12.9011 2.43172 12.5809 2.76849C12.4212 2.93992 12.5809 3.27326 12.8253 3.18754C13.2244 3.05226 13.6037 2.86327 13.9532 2.62564C13.9532 2.99707 14.0565 3.38754 14.1035 3.73992C14.115 3.80083 14.1471 3.85577 14.1943 3.89528C14.2415 3.9348 14.3008 3.95642 14.362 3.95642C14.4232 3.95642 14.4825 3.9348 14.5297 3.89528C14.5768 3.85577 14.6089 3.80083 14.6205 3.73992C14.6205 3.36849 14.7144 2.96851 14.7238 2.58755C14.9582 2.79571 15.225 2.96304 15.5133 3.08278C15.5824 3.10286 15.6562 3.09875 15.7227 3.0711C15.7892 3.04345 15.8446 2.99389 15.8799 2.93041C15.9125 2.86831 15.9256 2.79751 15.9171 2.72766C15.9087 2.6578 15.8793 2.59226 15.8329 2.53993C15.6167 2.27327 15.4099 2.0066 15.222 1.73041C15.4924 1.33787 15.6987 0.903743 15.8329 0.444709C15.9739 0.0256632 15.4005 -0.155291 15.175 0.158993C14.9494 0.473277 14.6111 0.835182 14.3385 1.18756L14.3385 1.25422C14.087 1.04576 13.8047 0.878641 13.502 0.75898C13.238 0.600473 12.9428 0.50293 12.6373 0.473279C12.5893 0.46579 12.5402 0.47242 12.4958 0.492403C12.4513 0.512386 12.4135 0.544881 12.3868 0.586004C12.3601 0.627128 12.3456 0.675157 12.345 0.724394C12.3444 0.77363 12.3578 0.821991 12.3836 0.863742Z" fill="#F8CA95"/>
</g>
</svg>
