<svg width="28" height="4" viewBox="0 0 28 4" fill="none" xmlns="http://www.w3.org/2000/svg">
<g id="Frame 21">
<path id="Vector" d="M0.463231 1.92093C0.89874 1.51028 1.42881 1.2167 2.00506 1.06698C2.58131 0.917253 3.18539 0.916164 3.76216 1.06379C4.61764 1.25485 5.45204 1.53243 6.25281 1.89236C6.74659 2.10779 7.25176 2.29539 7.76599 2.45427C8.04553 2.54968 8.33626 2.60731 8.63067 2.62569C9.57054 2.93045 9.97469 2.39712 9.98408 1.03522C9.91787 1.03234 9.85431 1.00803 9.80271 0.965876C9.75111 0.923719 9.7142 0.86593 9.69739 0.800966C9.68057 0.736002 9.68473 0.66729 9.70926 0.604899C9.7338 0.542507 9.77742 0.489717 9.83372 0.454273C11.7135 -0.555245 12.5405 2.10188 11.1965 3.3114C10.7482 3.62992 10.2335 3.83943 9.69234 3.92367C9.15117 4.00791 8.59812 3.96459 8.07615 3.79711C5.51031 3.19711 3.5084 1.05427 0.707592 2.27332C0.510219 2.35903 0.275257 2.12092 0.463231 1.9495L0.463231 1.92093Z" fill="#F8CA95"/>
<path id="Vector_2" d="M27.7196 1.92093C27.2841 1.51028 26.754 1.2167 26.1777 1.06698C25.6015 0.917253 24.9974 0.916163 24.4206 1.06379C23.5678 1.25345 22.7364 1.53108 21.9394 1.89236C21.4424 2.10781 20.9341 2.29541 20.4168 2.45427C20.1373 2.54968 19.8465 2.60731 19.5521 2.62569C18.6592 2.93045 18.2081 2.39712 18.1987 1.03522C18.2649 1.03234 18.3285 1.00803 18.3801 0.965876C18.4317 0.923719 18.4686 0.86593 18.4854 0.800966C18.5022 0.736002 18.4981 0.66729 18.4735 0.604899C18.449 0.542508 18.4054 0.489718 18.3491 0.454274C16.5163 -0.555245 15.6423 2.10188 16.9863 3.3114C17.4346 3.62992 17.9493 3.83943 18.4904 3.92367C19.0316 4.00791 19.5847 3.96459 20.1066 3.79711C22.6725 3.19711 24.6744 1.05427 27.4752 2.27331C27.6726 2.35903 27.9075 2.12092 27.7196 1.9495L27.7196 1.92093Z" fill="#F8CA95"/>
<path id="Vector_3" d="M12.2588 0.863772C12.4445 1.10681 12.6782 1.30793 12.9449 1.45426C13.1141 1.57806 13.2927 1.71139 13.4712 1.81615C13.1153 2.11377 12.7764 2.43175 12.4562 2.76852C12.2964 2.93995 12.4562 3.27329 12.7005 3.18757C13.0996 3.05229 13.479 2.8633 13.8284 2.62567C13.8284 2.9971 13.9318 3.38757 13.9788 3.73995C13.9903 3.80086 14.0224 3.8558 14.0696 3.89531C14.1167 3.93483 14.176 3.95645 14.2372 3.95645C14.2984 3.95645 14.3577 3.93483 14.4049 3.89531C14.4521 3.8558 14.4842 3.80086 14.4957 3.73995C14.4957 3.36853 14.5897 2.96854 14.5991 2.58759C14.8334 2.79574 15.1002 2.96308 15.3886 3.08281C15.4577 3.1029 15.5315 3.09878 15.598 3.07113C15.6645 3.04348 15.7198 2.99392 15.7551 2.93044C15.7878 2.86834 15.8008 2.79754 15.7924 2.72769C15.784 2.65783 15.7546 2.59229 15.7081 2.53996C15.492 2.2733 15.2852 2.00663 15.0972 1.73044C15.3677 1.3379 15.574 0.903773 15.7081 0.444739C15.8491 0.0256937 15.2758 -0.155261 15.0502 0.159023C14.8247 0.473307 14.4863 0.835212 14.2137 1.18759L14.2137 1.25425C13.9622 1.04579 13.68 0.878671 13.3773 0.759011C13.1133 0.600504 12.818 0.50296 12.5126 0.473309C12.4646 0.46582 12.4154 0.472451 12.371 0.492434C12.3266 0.512416 12.2888 0.544911 12.2621 0.586035C12.2353 0.627159 12.2208 0.675188 12.2202 0.724424C12.2197 0.773661 12.233 0.822022 12.2588 0.863772Z" fill="#F8CA95"/>
</g>
</svg>
