<svg width="28" height="4" viewBox="0 0 28 4" fill="none" xmlns="http://www.w3.org/2000/svg">
<g id="Frame 20">
<path id="Vector" d="M0.0689439 1.92093C0.504453 1.51028 1.03452 1.2167 1.61077 1.06698C2.18702 0.917253 2.7911 0.916164 3.36788 1.06379C4.22336 1.25485 5.05775 1.53243 5.85852 1.89236C6.3523 2.10779 6.85747 2.29539 7.37171 2.45427C7.65125 2.54968 7.94198 2.60731 8.23639 2.62569C9.17625 2.93045 9.5804 2.39712 9.5898 1.03522C9.52358 1.03234 9.46002 1.00803 9.40842 0.965876C9.35683 0.923719 9.31992 0.86593 9.3031 0.800966C9.28629 0.736002 9.29044 0.66729 9.31498 0.604899C9.33951 0.542507 9.38313 0.489717 9.43943 0.454273C11.3192 -0.555245 12.1462 2.10188 10.8022 3.3114C10.3539 3.62992 9.83922 3.83943 9.29805 3.92367C8.75689 4.00791 8.20384 3.96459 7.68187 3.79711C5.11603 3.19711 3.11411 1.05427 0.313304 2.27332C0.115932 2.35903 -0.11903 2.12092 0.0689439 1.9495L0.0689439 1.92093Z" fill="#F8CA95"/>
<path id="Vector_2" d="M27.3253 1.92093C26.8898 1.51028 26.3597 1.2167 25.7834 1.06698C25.2072 0.917253 24.6031 0.916163 24.0263 1.06379C23.1735 1.25345 22.3421 1.53108 21.5451 1.89236C21.0481 2.10781 20.5398 2.29541 20.0225 2.45427C19.743 2.54968 19.4522 2.60731 19.1578 2.62569C18.265 2.93045 17.8138 2.39712 17.8044 1.03522C17.8706 1.03234 17.9342 1.00803 17.9858 0.965876C18.0374 0.923719 18.0743 0.86593 18.0911 0.800966C18.1079 0.736002 18.1038 0.66729 18.0792 0.604899C18.0547 0.542508 18.0111 0.489718 17.9548 0.454274C16.1221 -0.555245 15.248 2.10188 16.592 3.3114C17.0403 3.62992 17.555 3.83943 18.0962 3.92367C18.6373 4.00791 19.1904 3.96459 19.7123 3.79711C22.2782 3.19711 24.2801 1.05427 27.0809 2.27331C27.2783 2.35903 27.5133 2.12092 27.3253 1.9495L27.3253 1.92093Z" fill="#F8CA95"/>
<path id="Vector_3" d="M11.8645 0.863772C12.0502 1.10681 12.2839 1.30793 12.5506 1.45426C12.7198 1.57806 12.8984 1.71139 13.077 1.81615C12.721 2.11377 12.3821 2.43175 12.0619 2.76852C11.9021 2.93995 12.0619 3.27329 12.3063 3.18757C12.7053 3.05229 13.0847 2.8633 13.4341 2.62567C13.4341 2.9971 13.5375 3.38757 13.5845 3.73995C13.596 3.80086 13.6281 3.8558 13.6753 3.89531C13.7225 3.93483 13.7818 3.95645 13.843 3.95645C13.9042 3.95645 13.9634 3.93483 14.0106 3.89531C14.0578 3.8558 14.0899 3.80086 14.1014 3.73995C14.1014 3.36853 14.1954 2.96854 14.2048 2.58759C14.4391 2.79574 14.7059 2.96308 14.9943 3.08281C15.0634 3.1029 15.1372 3.09878 15.2037 3.07113C15.2702 3.04348 15.3256 2.99392 15.3608 2.93044C15.3935 2.86834 15.4065 2.79754 15.3981 2.72769C15.3897 2.65783 15.3603 2.59229 15.3139 2.53996C15.0977 2.2733 14.8909 2.00663 14.7029 1.73044C14.9734 1.3379 15.1797 0.903773 15.3139 0.444739C15.4548 0.0256937 14.8815 -0.155261 14.6559 0.159023C14.4304 0.473307 14.092 0.835212 13.8195 1.18759L13.8195 1.25425C13.5679 1.04579 13.2857 0.878671 12.983 0.759011C12.719 0.600504 12.4237 0.50296 12.1183 0.473309C12.0703 0.46582 12.0211 0.472451 11.9767 0.492434C11.9323 0.512416 11.8945 0.544911 11.8678 0.586035C11.841 0.627159 11.8265 0.675188 11.8259 0.724424C11.8254 0.773661 11.8388 0.822022 11.8645 0.863772Z" fill="#F8CA95"/>
</g>
</svg>
