<svg width="29" height="4" viewBox="0 0 29 4" fill="none" xmlns="http://www.w3.org/2000/svg">
<g id="Frame 32">
<path id="Vector" d="M0.799657 1.9209C1.23517 1.51025 1.76523 1.21667 2.34148 1.06695C2.91774 0.917223 3.52181 0.916133 4.09859 1.06376C4.95407 1.25482 5.78846 1.5324 6.58923 1.89233C7.08302 2.10776 7.58819 2.29536 8.10242 2.45424C8.38196 2.54965 8.67269 2.60728 8.9671 2.62566C9.90697 2.93042 10.3111 2.39709 10.3205 1.03519C10.2543 1.03231 10.1907 1.008 10.1391 0.965845C10.0875 0.923688 10.0506 0.865899 10.0338 0.800935C10.017 0.735971 10.0212 0.66726 10.0457 0.604868C10.0702 0.542477 10.1138 0.489687 10.1701 0.454243C12.0499 -0.555276 12.877 2.10185 11.5329 3.31137C11.0847 3.62989 10.5699 3.8394 10.0288 3.92364C9.4876 4.00787 8.93455 3.96456 8.41258 3.79708C5.84674 3.19708 3.84482 1.05424 1.04402 2.27328C0.846645 2.359 0.611683 2.12089 0.799657 1.94947L0.799657 1.9209Z" fill="#F8CA95"/>
<path id="Vector_2" d="M28.056 1.9209C27.6205 1.51025 27.0904 1.21667 26.5142 1.06695C25.9379 0.917222 25.3338 0.916133 24.757 1.06376C23.9042 1.25342 23.0728 1.53105 22.2758 1.89233C21.7788 2.10778 21.2705 2.29537 20.7532 2.45424C20.4737 2.54965 20.1829 2.60728 19.8885 2.62566C18.9957 2.93042 18.5445 2.39709 18.5351 1.03519C18.6013 1.03231 18.6649 1.008 18.7165 0.965846C18.7681 0.923689 18.805 0.8659 18.8218 0.800935C18.8387 0.735971 18.8345 0.66726 18.8099 0.604868C18.7854 0.542477 18.7418 0.489687 18.6855 0.454243C16.8528 -0.555275 15.9787 2.10185 17.3227 3.31137C17.771 3.62989 18.2857 3.8394 18.8269 3.92364C19.368 4.00788 19.9211 3.96456 20.4431 3.79708C23.0089 3.19708 25.0108 1.05424 27.8116 2.27328C28.009 2.359 28.244 2.12089 28.056 1.94947L28.056 1.9209Z" fill="#F8CA95"/>
<path id="Vector_3" d="M12.5952 0.863742C12.7809 1.10678 13.0146 1.3079 13.2814 1.45423C13.4505 1.57803 13.6291 1.71136 13.8077 1.81612C13.4517 2.11374 13.1128 2.43172 12.7926 2.76849C12.6328 2.93992 12.7926 3.27326 13.037 3.18754C13.4361 3.05226 13.8154 2.86327 14.1648 2.62564C14.1648 2.99707 14.2682 3.38754 14.3152 3.73992C14.3267 3.80083 14.3588 3.85577 14.406 3.89528C14.4532 3.9348 14.5125 3.95642 14.5737 3.95642C14.6349 3.95642 14.6942 3.9348 14.7413 3.89528C14.7885 3.85577 14.8206 3.80083 14.8321 3.73992C14.8321 3.36849 14.9261 2.96851 14.9355 2.58755C15.1699 2.79571 15.4366 2.96304 15.725 3.08278C15.7941 3.10286 15.8679 3.09875 15.9344 3.0711C16.0009 3.04345 16.0563 2.99389 16.0915 2.93041C16.1242 2.86831 16.1372 2.79751 16.1288 2.72766C16.1204 2.6578 16.091 2.59226 16.0446 2.53993C15.8284 2.27327 15.6216 2.0066 15.4336 1.73041C15.7041 1.33787 15.9104 0.903743 16.0446 0.444709C16.1855 0.0256632 15.6122 -0.155291 15.3866 0.158993C15.1611 0.473277 14.8227 0.835182 14.5502 1.18756L14.5502 1.25422C14.2987 1.04576 14.0164 0.878641 13.7137 0.75898C13.4497 0.600473 13.1545 0.50293 12.849 0.473279C12.801 0.46579 12.7518 0.47242 12.7074 0.492403C12.663 0.512386 12.6252 0.544881 12.5985 0.586004C12.5718 0.627128 12.5572 0.675157 12.5567 0.724394C12.5561 0.77363 12.5695 0.821991 12.5952 0.863742Z" fill="#F8CA95"/>
</g>
</svg>
