<svg width="28" height="4" viewBox="0 0 28 4" fill="none" xmlns="http://www.w3.org/2000/svg">
<g id="Frame 24">
<path id="Vector" d="M0.645848 1.92093C1.08136 1.51028 1.61142 1.2167 2.18768 1.06698C2.76393 0.917253 3.368 0.916164 3.94478 1.06379C4.80026 1.25485 5.63465 1.53243 6.43542 1.89236C6.92921 2.10779 7.43438 2.29539 7.94861 2.45427C8.22815 2.54968 8.51888 2.60731 8.81329 2.62569C9.75316 2.93045 10.1573 2.39712 10.1667 1.03522C10.1005 1.03234 10.0369 1.00803 9.98533 0.965876C9.93373 0.923719 9.89682 0.86593 9.88001 0.800966C9.86319 0.736002 9.86735 0.66729 9.89188 0.604899C9.91641 0.542507 9.96004 0.489717 10.0163 0.454273C11.8961 -0.555245 12.7232 2.10188 11.3791 3.3114C10.9308 3.62992 10.4161 3.83943 9.87496 3.92367C9.33379 4.00791 8.78074 3.96459 8.25877 3.79711C5.69293 3.19711 3.69102 1.05427 0.890209 2.27332C0.692836 2.35903 0.457875 2.12092 0.645848 1.9495L0.645848 1.92093Z" fill="#F8CA95"/>
<path id="Vector_2" d="M27.9022 1.92093C27.4667 1.51028 26.9366 1.2167 26.3603 1.06698C25.7841 0.917253 25.18 0.916163 24.6032 1.06379C23.7504 1.25345 22.919 1.53108 22.122 1.89236C21.625 2.10781 21.1167 2.29541 20.5994 2.45427C20.3199 2.54968 20.0291 2.60731 19.7347 2.62569C18.8419 2.93045 18.3907 2.39712 18.3813 1.03522C18.4475 1.03234 18.5111 1.00803 18.5627 0.965876C18.6143 0.923719 18.6512 0.86593 18.668 0.800966C18.6848 0.736002 18.6807 0.66729 18.6561 0.604899C18.6316 0.542508 18.588 0.489718 18.5317 0.454274C16.699 -0.555245 15.8249 2.10188 17.1689 3.3114C17.6172 3.62992 18.1319 3.83943 18.6731 3.92367C19.2142 4.00791 19.7673 3.96459 20.2892 3.79711C22.8551 3.19711 24.857 1.05427 27.6578 2.27331C27.8552 2.35903 28.0902 2.12092 27.9022 1.9495L27.9022 1.92093Z" fill="#F8CA95"/>
<path id="Vector_3" d="M12.4414 0.863772C12.6271 1.10681 12.8608 1.30793 13.1275 1.45426C13.2967 1.57806 13.4753 1.71139 13.6539 1.81615C13.2979 2.11377 12.959 2.43175 12.6388 2.76852C12.479 2.93995 12.6388 3.27329 12.8832 3.18757C13.2822 3.05229 13.6616 2.8633 14.011 2.62567C14.011 2.9971 14.1144 3.38757 14.1614 3.73995C14.1729 3.80086 14.205 3.8558 14.2522 3.89531C14.2994 3.93483 14.3587 3.95645 14.4199 3.95645C14.4811 3.95645 14.5403 3.93483 14.5875 3.89531C14.6347 3.8558 14.6668 3.80086 14.6783 3.73995C14.6783 3.36853 14.7723 2.96854 14.7817 2.58759C15.0161 2.79574 15.2828 2.96308 15.5712 3.08281C15.6403 3.1029 15.7141 3.09878 15.7806 3.07113C15.8471 3.04348 15.9025 2.99392 15.9377 2.93044C15.9704 2.86834 15.9834 2.79754 15.975 2.72769C15.9666 2.65783 15.9372 2.59229 15.8908 2.53996C15.6746 2.2733 15.4678 2.00663 15.2798 1.73044C15.5503 1.3379 15.7566 0.903773 15.8908 0.444739C16.0317 0.0256937 15.4584 -0.155261 15.2328 0.159023C15.0073 0.473307 14.6689 0.835212 14.3964 1.18759L14.3964 1.25425C14.1448 1.04579 13.8626 0.878671 13.5599 0.759011C13.2959 0.600504 13.0006 0.50296 12.6952 0.473309C12.6472 0.46582 12.598 0.472451 12.5536 0.492434C12.5092 0.512416 12.4714 0.544911 12.4447 0.586035C12.4179 0.627159 12.4034 0.675188 12.4028 0.724424C12.4023 0.773661 12.4157 0.822022 12.4414 0.863772Z" fill="#F8CA95"/>
</g>
</svg>
