<svg width="28" height="4" viewBox="0 0 28 4" fill="none" xmlns="http://www.w3.org/2000/svg">
<g id="Frame 33">
<path id="Vector" d="M0.193944 1.9209C0.629453 1.51025 1.15952 1.21667 1.73577 1.06695C2.31202 0.917223 2.9161 0.916133 3.49288 1.06376C4.34836 1.25482 5.18275 1.5324 5.98352 1.89233C6.4773 2.10776 6.98247 2.29536 7.49671 2.45424C7.77625 2.54965 8.06698 2.60728 8.36139 2.62566C9.30125 2.93042 9.7054 2.39709 9.7148 1.03519C9.64858 1.03231 9.58502 1.008 9.53342 0.965845C9.48183 0.923688 9.44492 0.865899 9.4281 0.800935C9.41129 0.735971 9.41544 0.66726 9.43998 0.604868C9.46451 0.542477 9.50813 0.489687 9.56443 0.454243C11.4442 -0.555276 12.2712 2.10185 10.9272 3.31137C10.4789 3.62989 9.96422 3.8394 9.42305 3.92364C8.88189 4.00787 8.32884 3.96456 7.80687 3.79708C5.24103 3.19708 3.23911 1.05424 0.438304 2.27328C0.240932 2.359 0.00597027 2.12089 0.193944 1.94947L0.193944 1.9209Z" fill="#F8CA95"/>
<path id="Vector_2" d="M27.4503 1.9209C27.0148 1.51025 26.4847 1.21667 25.9084 1.06695C25.3322 0.917222 24.7281 0.916133 24.1513 1.06376C23.2985 1.25342 22.4671 1.53105 21.6701 1.89233C21.1731 2.10778 20.6648 2.29537 20.1475 2.45424C19.868 2.54965 19.5772 2.60728 19.2828 2.62566C18.39 2.93042 17.9388 2.39709 17.9294 1.03519C17.9956 1.03231 18.0592 1.008 18.1108 0.965846C18.1624 0.923689 18.1993 0.8659 18.2161 0.800935C18.2329 0.735971 18.2288 0.66726 18.2042 0.604868C18.1797 0.542477 18.1361 0.489687 18.0798 0.454243C16.2471 -0.555275 15.373 2.10185 16.717 3.31137C17.1653 3.62989 17.68 3.8394 18.2212 3.92364C18.7623 4.00788 19.3154 3.96456 19.8373 3.79708C22.4032 3.19708 24.4051 1.05424 27.2059 2.27328C27.4033 2.359 27.6383 2.12089 27.4503 1.94947L27.4503 1.9209Z" fill="#F8CA95"/>
<path id="Vector_3" d="M11.9895 0.863742C12.1752 1.10678 12.4089 1.3079 12.6756 1.45423C12.8448 1.57803 13.0234 1.71136 13.202 1.81612C12.846 2.11374 12.5071 2.43172 12.1869 2.76849C12.0271 2.93992 12.1869 3.27326 12.4313 3.18754C12.8303 3.05226 13.2097 2.86327 13.5591 2.62564C13.5591 2.99707 13.6625 3.38754 13.7095 3.73992C13.721 3.80083 13.7531 3.85577 13.8003 3.89528C13.8475 3.9348 13.9068 3.95642 13.968 3.95642C14.0292 3.95642 14.0884 3.9348 14.1356 3.89528C14.1828 3.85577 14.2149 3.80083 14.2264 3.73992C14.2264 3.36849 14.3204 2.96851 14.3298 2.58755C14.5641 2.79571 14.8309 2.96304 15.1193 3.08278C15.1884 3.10286 15.2622 3.09875 15.3287 3.0711C15.3952 3.04345 15.4506 2.99389 15.4858 2.93041C15.5185 2.86831 15.5315 2.79751 15.5231 2.72766C15.5147 2.6578 15.4853 2.59226 15.4389 2.53993C15.2227 2.27327 15.0159 2.0066 14.8279 1.73041C15.0984 1.33787 15.3047 0.903743 15.4389 0.444709C15.5798 0.0256632 15.0065 -0.155291 14.7809 0.158993C14.5554 0.473277 14.217 0.835182 13.9445 1.18756L13.9445 1.25422C13.6929 1.04576 13.4107 0.878641 13.108 0.75898C12.844 0.600473 12.5487 0.50293 12.2433 0.473279C12.1953 0.46579 12.1461 0.47242 12.1017 0.492403C12.0573 0.512386 12.0195 0.544881 11.9928 0.586004C11.966 0.627128 11.9515 0.675157 11.9509 0.724394C11.9504 0.77363 11.9638 0.821991 11.9895 0.863742Z" fill="#F8CA95"/>
</g>
</svg>
