<svg width="29" height="4" viewBox="0 0 29 4" fill="none" xmlns="http://www.w3.org/2000/svg">
<g id="Frame 22">
<path id="Vector" d="M0.857274 1.92093C1.29278 1.51028 1.82285 1.2167 2.3991 1.06698C2.97535 0.917253 3.57943 0.916164 4.15621 1.06379C5.01169 1.25485 5.84608 1.53243 6.64685 1.89236C7.14063 2.10779 7.6458 2.29539 8.16004 2.45427C8.43958 2.54968 8.73031 2.60731 9.02472 2.62569C9.96458 2.93045 10.3687 2.39712 10.3781 1.03522C10.3119 1.03234 10.2483 1.00803 10.1968 0.965876C10.1452 0.923719 10.1082 0.86593 10.0914 0.800966C10.0746 0.736002 10.0788 0.66729 10.1033 0.604899C10.1278 0.542507 10.1715 0.489717 10.2278 0.454273C12.1075 -0.555245 12.9346 2.10188 11.5906 3.3114C11.1423 3.62992 10.6275 3.83943 10.0864 3.92367C9.54522 4.00791 8.99217 3.96459 8.4702 3.79711C5.90436 3.19711 3.90244 1.05427 1.10163 2.27332C0.904262 2.35903 0.6693 2.12092 0.857274 1.9495L0.857274 1.92093Z" fill="#F8CA95"/>
<path id="Vector_2" d="M28.1136 1.92093C27.6781 1.51028 27.148 1.2167 26.5718 1.06698C25.9955 0.917253 25.3914 0.916163 24.8147 1.06379C23.9618 1.25345 23.1304 1.53108 22.3334 1.89236C21.8364 2.10781 21.3281 2.29541 20.8108 2.45427C20.5313 2.54968 20.2406 2.60731 19.9462 2.62569C19.0533 2.93045 18.6021 2.39712 18.5927 1.03522C18.659 1.03234 18.7225 1.00803 18.7741 0.965876C18.8257 0.923719 18.8626 0.86593 18.8795 0.800966C18.8963 0.736002 18.8921 0.66729 18.8676 0.604899C18.843 0.542508 18.7994 0.489718 18.7431 0.454274C16.9104 -0.555245 16.0363 2.10188 17.3803 3.3114C17.8286 3.62992 18.3433 3.83943 18.8845 3.92367C19.4257 4.00791 19.9787 3.96459 20.5007 3.79711C23.0665 3.19711 25.0684 1.05427 27.8692 2.27331C28.0666 2.35903 28.3016 2.12092 28.1136 1.9495L28.1136 1.92093Z" fill="#F8CA95"/>
<path id="Vector_3" d="M12.6529 0.863772C12.8385 1.10681 13.0722 1.30793 13.339 1.45426C13.5081 1.57806 13.6867 1.71139 13.8653 1.81615C13.5093 2.11377 13.1704 2.43175 12.8502 2.76852C12.6905 2.93995 12.8502 3.27329 13.0946 3.18757C13.4937 3.05229 13.873 2.8633 14.2224 2.62567C14.2224 2.9971 14.3258 3.38757 14.3728 3.73995C14.3843 3.80086 14.4164 3.8558 14.4636 3.89531C14.5108 3.93483 14.5701 3.95645 14.6313 3.95645C14.6925 3.95645 14.7518 3.93483 14.7989 3.89531C14.8461 3.8558 14.8782 3.80086 14.8897 3.73995C14.8897 3.36853 14.9837 2.96854 14.9931 2.58759C15.2275 2.79574 15.4943 2.96308 15.7826 3.08281C15.8517 3.1029 15.9255 3.09878 15.992 3.07113C16.0585 3.04348 16.1139 2.99392 16.1492 2.93044C16.1818 2.86834 16.1948 2.79754 16.1864 2.72769C16.178 2.65783 16.1486 2.59229 16.1022 2.53996C15.886 2.2733 15.6792 2.00663 15.4913 1.73044C15.7617 1.3379 15.968 0.903773 16.1022 0.444739C16.2432 0.0256937 15.6698 -0.155261 15.4443 0.159023C15.2187 0.473307 14.8803 0.835212 14.6078 1.18759L14.6078 1.25425C14.3563 1.04579 14.074 0.878671 13.7713 0.759011C13.5073 0.600504 13.2121 0.50296 12.9066 0.473309C12.8586 0.46582 12.8095 0.472451 12.765 0.492434C12.7206 0.512416 12.6828 0.544911 12.6561 0.586035C12.6294 0.627159 12.6148 0.675188 12.6143 0.724424C12.6137 0.773661 12.6271 0.822022 12.6529 0.863772Z" fill="#F8CA95"/>
</g>
</svg>
