<svg width="29" height="4" viewBox="0 0 29 4" fill="none" xmlns="http://www.w3.org/2000/svg">
<g id="Frame 30">
<path id="Vector" d="M1.01108 1.92093C1.44659 1.51028 1.97666 1.2167 2.55291 1.06698C3.12916 0.917253 3.73324 0.916164 4.31001 1.06379C5.1655 1.25485 5.99989 1.53243 6.80066 1.89236C7.29444 2.10779 7.79961 2.29539 8.31385 2.45427C8.59338 2.54968 8.88411 2.60731 9.17852 2.62569C10.1184 2.93045 10.5225 2.39712 10.5319 1.03522C10.4657 1.03234 10.4022 1.00803 10.3506 0.965876C10.299 0.923719 10.2621 0.86593 10.2452 0.800966C10.2284 0.736002 10.2326 0.66729 10.2571 0.604899C10.2816 0.542507 10.3253 0.489717 10.3816 0.454273C12.2613 -0.555245 13.0884 2.10188 11.7444 3.3114C11.2961 3.62992 10.7814 3.83943 10.2402 3.92367C9.69903 4.00791 9.14598 3.96459 8.624 3.79711C6.05817 3.19711 4.05625 1.05427 1.25544 2.27332C1.05807 2.35903 0.823109 2.12092 1.01108 1.9495L1.01108 1.92093Z" fill="#F8CA95"/>
<path id="Vector_2" d="M28.2674 1.92093C27.8319 1.51028 27.3018 1.2167 26.7256 1.06698C26.1493 0.917253 25.5453 0.916163 24.9685 1.06379C24.1157 1.25345 23.2842 1.53108 22.4872 1.89236C21.9902 2.10781 21.482 2.29541 20.9646 2.45427C20.6851 2.54968 20.3944 2.60731 20.1 2.62569C19.2071 2.93045 18.756 2.39712 18.7466 1.03522C18.8128 1.03234 18.8763 1.00803 18.9279 0.965876C18.9795 0.923719 19.0164 0.86593 19.0333 0.800966C19.0501 0.736002 19.0459 0.66729 19.0214 0.604899C18.9968 0.542508 18.9532 0.489718 18.8969 0.454274C17.0642 -0.555245 16.1901 2.10188 17.5341 3.3114C17.9824 3.62992 18.4971 3.83943 19.0383 3.92367C19.5795 4.00791 20.1325 3.96459 20.6545 3.79711C23.2203 3.19711 25.2222 1.05427 28.023 2.27331C28.2204 2.35903 28.4554 2.12092 28.2674 1.9495L28.2674 1.92093Z" fill="#F8CA95"/>
<path id="Vector_3" d="M12.8067 0.863772C12.9923 1.10681 13.226 1.30793 13.4928 1.45426C13.662 1.57806 13.8405 1.71139 14.0191 1.81615C13.6631 2.11377 13.3242 2.43175 13.004 2.76852C12.8443 2.93995 13.004 3.27329 13.2484 3.18757C13.6475 3.05229 14.0268 2.8633 14.3763 2.62567C14.3763 2.9971 14.4796 3.38757 14.5266 3.73995C14.5381 3.80086 14.5702 3.8558 14.6174 3.89531C14.6646 3.93483 14.7239 3.95645 14.7851 3.95645C14.8463 3.95645 14.9056 3.93483 14.9528 3.89531C14.9999 3.8558 15.032 3.80086 15.0436 3.73995C15.0436 3.36853 15.1375 2.96854 15.1469 2.58759C15.3813 2.79574 15.6481 2.96308 15.9364 3.08281C16.0055 3.1029 16.0793 3.09878 16.1458 3.07113C16.2123 3.04348 16.2677 2.99392 16.303 2.93044C16.3356 2.86834 16.3487 2.79754 16.3402 2.72769C16.3318 2.65783 16.3024 2.59229 16.256 2.53996C16.0398 2.2733 15.833 2.00663 15.6451 1.73044C15.9155 1.3379 16.1218 0.903773 16.256 0.444739C16.397 0.0256937 15.8236 -0.155261 15.5981 0.159023C15.3725 0.473307 15.0342 0.835212 14.7616 1.18759L14.7616 1.25425C14.5101 1.04579 14.2278 0.878671 13.9251 0.759011C13.6611 0.600504 13.3659 0.50296 13.0604 0.473309C13.0124 0.46582 12.9633 0.472451 12.9189 0.492434C12.8744 0.512416 12.8366 0.544911 12.8099 0.586035C12.7832 0.627159 12.7687 0.675188 12.7681 0.724424C12.7675 0.773661 12.7809 0.822022 12.8067 0.863772Z" fill="#F8CA95"/>
</g>
</svg>
