<svg width="29" height="4" viewBox="0 0 29 4" fill="none" xmlns="http://www.w3.org/2000/svg">
<g id="Frame 35">
<path id="Vector" d="M0.982274 1.9209C1.41778 1.51025 1.94785 1.21667 2.5241 1.06695C3.10035 0.917223 3.70443 0.916133 4.28121 1.06376C5.13669 1.25482 5.97108 1.5324 6.77185 1.89233C7.26563 2.10776 7.7708 2.29536 8.28504 2.45424C8.56458 2.54965 8.85531 2.60728 9.14972 2.62566C10.0896 2.93042 10.4937 2.39709 10.5031 1.03519C10.4369 1.03231 10.3733 1.008 10.3218 0.965845C10.2702 0.923688 10.2332 0.865899 10.2164 0.800935C10.1996 0.735971 10.2038 0.66726 10.2283 0.604868C10.2528 0.542477 10.2965 0.489687 10.3528 0.454243C12.2325 -0.555276 13.0596 2.10185 11.7156 3.31137C11.2673 3.62989 10.7525 3.8394 10.2114 3.92364C9.67022 4.00787 9.11717 3.96456 8.5952 3.79708C6.02936 3.19708 4.02744 1.05424 1.22663 2.27328C1.02926 2.359 0.7943 2.12089 0.982274 1.94947L0.982274 1.9209Z" fill="#F8CA95"/>
<path id="Vector_2" d="M28.2386 1.9209C27.8031 1.51025 27.273 1.21667 26.6968 1.06695C26.1205 0.917222 25.5164 0.916133 24.9397 1.06376C24.0868 1.25342 23.2554 1.53105 22.4584 1.89233C21.9614 2.10778 21.4531 2.29537 20.9358 2.45424C20.6563 2.54965 20.3656 2.60728 20.0712 2.62566C19.1783 2.93042 18.7271 2.39709 18.7177 1.03519C18.784 1.03231 18.8475 1.008 18.8991 0.965846C18.9507 0.923689 18.9876 0.8659 19.0045 0.800935C19.0213 0.735971 19.0171 0.66726 18.9926 0.604868C18.968 0.542477 18.9244 0.489687 18.8681 0.454243C17.0354 -0.555275 16.1613 2.10185 17.5053 3.31137C17.9536 3.62989 18.4683 3.8394 19.0095 3.92364C19.5507 4.00788 20.1037 3.96456 20.6257 3.79708C23.1915 3.19708 25.1934 1.05424 27.9942 2.27328C28.1916 2.359 28.4266 2.12089 28.2386 1.94947L28.2386 1.9209Z" fill="#F8CA95"/>
<path id="Vector_3" d="M12.7779 0.863742C12.9635 1.10678 13.1972 1.3079 13.464 1.45423C13.6331 1.57803 13.8117 1.71136 13.9903 1.81612C13.6343 2.11374 13.2954 2.43172 12.9752 2.76849C12.8155 2.93992 12.9752 3.27326 13.2196 3.18754C13.6187 3.05226 13.998 2.86327 14.3474 2.62564C14.3474 2.99707 14.4508 3.38754 14.4978 3.73992C14.5093 3.80083 14.5414 3.85577 14.5886 3.89528C14.6358 3.9348 14.6951 3.95642 14.7563 3.95642C14.8175 3.95642 14.8768 3.9348 14.9239 3.89528C14.9711 3.85577 15.0032 3.80083 15.0147 3.73992C15.0147 3.36849 15.1087 2.96851 15.1181 2.58755C15.3525 2.79571 15.6193 2.96304 15.9076 3.08278C15.9767 3.10286 16.0505 3.09875 16.117 3.0711C16.1835 3.04345 16.2389 2.99389 16.2742 2.93041C16.3068 2.86831 16.3198 2.79751 16.3114 2.72766C16.303 2.6578 16.2736 2.59226 16.2272 2.53993C16.011 2.27327 15.8042 2.0066 15.6163 1.73041C15.8867 1.33787 16.093 0.903743 16.2272 0.444709C16.3682 0.0256632 15.7948 -0.155291 15.5693 0.158993C15.3437 0.473277 15.0053 0.835182 14.7328 1.18756L14.7328 1.25422C14.4813 1.04576 14.199 0.878641 13.8963 0.75898C13.6323 0.600473 13.3371 0.50293 13.0316 0.473279C12.9836 0.46579 12.9345 0.47242 12.89 0.492403C12.8456 0.512386 12.8078 0.544881 12.7811 0.586004C12.7544 0.627128 12.7398 0.675157 12.7393 0.724394C12.7387 0.77363 12.7521 0.821991 12.7779 0.863742Z" fill="#F8CA95"/>
</g>
</svg>
